<?xml version="1.0" standalone="no"?>
<!DOCTYPE svg PUBLIC "-//W3C//DTD SVG 20010904//EN"
 "http://www.w3.org/TR/2001/REC-SVG-20010904/DTD/svg10.dtd">
<svg version="1.0" xmlns="http://www.w3.org/2000/svg"
 width="260.000000pt" height="260.000000pt" viewBox="0 0 260.000000 260.000000"
 preserveAspectRatio="xMidYMid meet">
<metadata>
Created by potrace 1.14, written by Peter Selinger 2001-2017
</metadata>
<g transform="translate(0.000000,260.000000) scale(0.100000,-0.100000)"
fill="#000000" stroke="none">
<path d="M233 2214 c-19 -51 -100 -370 -95 -375 4 -4 77 -26 162 -48 85 -23
163 -45 173 -49 11 -4 -46 -7 -125 -7 -78 1 -148 0 -153 -2 -7 -2 -10 -139
-10 -393 0 -215 -3 -390 -7 -390 -4 0 -18 4 -32 10 -25 9 -26 7 -40 -43 -50
-177 -86 -331 -79 -337 4 -4 48 -17 98 -30 50 -12 178 -46 285 -76 107 -29
239 -64 292 -78 l97 -26 153 41 c84 23 179 48 211 57 68 17 67 0 12 197 -19
66 -39 139 -45 163 -6 23 -15 42 -21 42 -6 0 -86 -20 -178 -45 l-168 -45 -79
24 c-43 14 -117 36 -164 50 l-85 25 78 0 77 1 0 416 c0 329 3 415 13 411 6 -2
75 -21 152 -42 77 -21 196 -53 264 -71 69 -19 128 -31 132 -27 14 18 102 374
93 381 -5 5 -106 34 -224 66 -118 32 -226 61 -240 66 -14 4 -61 17 -105 29
-44 12 -160 43 -258 70 -138 37 -180 45 -184 35z"/>
<path d="M1469 2088 c0 -2 -24 -88 -53 -193 l-53 -190 59 -18 58 -18 0 -368
c0 -357 -1 -369 -19 -364 -22 6 -20 12 -82 -220 -23 -87 -40 -160 -37 -162 3
-3 103 -32 224 -65 120 -32 231 -63 246 -69 19 -6 30 -5 36 3 10 13 106 376
101 380 -2 2 -46 13 -96 26 -51 13 -91 26 -88 28 2 2 23 4 47 4 77 -2 75 -5
76 121 0 61 0 122 1 133 l1 22 62 -19 c34 -11 67 -18 73 -15 6 2 20 38 30 80
10 42 21 76 25 76 3 0 4 -93 4 -207 l-2 -208 -41 -144 c-22 -80 -40 -146 -38
-147 2 -2 115 -34 137 -39 8 -2 86 -24 173 -48 87 -24 159 -41 161 -38 2 3 20
69 41 146 20 77 43 162 50 188 14 46 13 48 -8 56 -12 5 -31 10 -42 12 -20 4
-20 13 -23 502 l-2 497 -203 0 -203 0 1 -221 1 -220 -31 5 c-53 9 -160 39
-165 47 -3 4 -4 78 -4 166 1 140 4 169 29 256 15 53 26 99 24 101 -6 5 -409
117 -441 122 -16 3 -28 4 -29 2z"/>
</g>
</svg>
